<?xml version="1.0" encoding="iso-8859-1"?>
<!-- Generator: Adobe Illustrator 19.0.0, SVG Export Plug-In . SVG Version: 6.00 Build 0)  -->
<svg version="1.1" id="Capa_1" xmlns="http://www.w3.org/2000/svg" xmlns:xlink="http://www.w3.org/1999/xlink" x="0px" y="0px"
	 viewBox="0 0 504.123 504.123" style="enable-background:new 0 0 504.123 504.123;" xml:space="preserve">
<circle style="fill:#F05F50;" cx="252.062" cy="252.062" r="252.062"/>
<g>
	<path style="fill:#183651;" d="M445.046,136.271h-46.474c-4.726,0-7.877-3.151-7.877-7.877c0-4.726,3.151-7.877,7.877-7.877h46.474
		c4.726,0,7.877,3.151,7.877,7.877C452.923,133.12,449.772,136.271,445.046,136.271z"/>
	<path style="fill:#183651;" d="M445.046,174.868h-46.474c-4.726,0-7.877-3.151-7.877-7.877c0-4.726,3.151-7.877,7.877-7.877h46.474
		c4.726,0,7.877,3.151,7.877,7.877C452.923,171.717,449.772,174.868,445.046,174.868z"/>
	<path style="fill:#183651;" d="M445.046,213.465h-46.474c-4.726,0-7.877-3.151-7.877-7.877c0-4.726,3.151-7.877,7.877-7.877h46.474
		c4.726,0,7.877,3.151,7.877,7.877C452.923,210.314,449.772,213.465,445.046,213.465z"/>
	<path style="fill:#183651;" d="M445.046,252.062h-46.474c-4.726,0-7.877-3.151-7.877-7.877s3.151-7.877,7.877-7.877h46.474
		c4.726,0,7.877,3.151,7.877,7.877C452.923,248.911,449.772,252.062,445.046,252.062z"/>
	<path style="fill:#183651;" d="M445.046,290.658h-46.474c-4.726,0-7.877-3.151-7.877-7.877s3.151-7.877,7.877-7.877h46.474
		c4.726,0,7.877,3.151,7.877,7.877S449.772,290.658,445.046,290.658z"/>
	<path style="fill:#183651;" d="M445.046,329.255h-46.474c-4.726,0-7.877-3.151-7.877-7.877s3.151-7.877,7.877-7.877h46.474
		c4.726,0,7.877,3.151,7.877,7.877C452.923,325.317,449.772,329.255,445.046,329.255z"/>
	<path style="fill:#183651;" d="M445.046,367.852h-46.474c-4.726,0-7.877-3.151-7.877-7.877c0-4.726,3.151-7.877,7.877-7.877h46.474
		c4.726,0,7.877,3.151,7.877,7.877C452.923,363.914,449.772,367.852,445.046,367.852z"/>
	<path style="fill:#183651;" d="M105.551,136.271H59.077c-4.726,0-7.877-3.151-7.877-7.877c0-4.726,3.151-7.877,7.877-7.877h46.474
		c4.726,0,7.877,3.151,7.877,7.877C113.428,133.12,110.277,136.271,105.551,136.271z"/>
	<path style="fill:#183651;" d="M105.551,174.868H59.077c-4.726,0-7.877-3.151-7.877-7.877c0-4.726,3.151-7.877,7.877-7.877h46.474
		c4.726,0,7.877,3.151,7.877,7.877C113.428,171.717,110.277,174.868,105.551,174.868z"/>
	<path style="fill:#183651;" d="M105.551,213.465H59.077c-4.726,0-7.877-3.151-7.877-7.877c0-4.726,3.151-7.877,7.877-7.877h46.474
		c4.726,0,7.877,3.151,7.877,7.877C113.428,210.314,110.277,213.465,105.551,213.465z"/>
	<path style="fill:#183651;" d="M105.551,252.062H59.077c-4.726,0-7.877-3.151-7.877-7.877s3.151-7.877,7.877-7.877h46.474
		c4.726,0,7.877,3.151,7.877,7.877C113.428,248.911,110.277,252.062,105.551,252.062z"/>
	<path style="fill:#183651;" d="M105.551,290.658H59.077c-4.726,0-7.877-3.151-7.877-7.877s3.151-7.877,7.877-7.877h46.474
		c4.726,0,7.877,3.151,7.877,7.877S110.277,290.658,105.551,290.658z"/>
	<path style="fill:#183651;" d="M105.551,329.255H59.077c-4.726,0-7.877-3.151-7.877-7.877s3.151-7.877,7.877-7.877h46.474
		c4.726,0,7.877,3.151,7.877,7.877C113.428,325.317,110.277,329.255,105.551,329.255z"/>
	<path style="fill:#183651;" d="M105.551,367.852H59.077c-4.726,0-7.877-3.151-7.877-7.877c0-4.726,3.151-7.877,7.877-7.877h46.474
		c4.726,0,7.877,3.151,7.877,7.877C113.428,363.914,110.277,367.852,105.551,367.852z"/>
	<path style="fill:#183651;" d="M367.852,445.046c-4.726,0-7.877-3.151-7.877-7.877v-46.474c0-4.726,3.151-7.877,7.877-7.877
		c4.726,0,7.877,3.151,7.877,7.877v46.474C375.729,441.895,371.791,445.046,367.852,445.046z"/>
	<path style="fill:#183651;" d="M329.255,445.046c-4.726,0-7.877-3.151-7.877-7.877v-46.474c0-4.726,3.151-7.877,7.877-7.877
		s7.877,3.151,7.877,7.877v46.474C337.132,441.895,333.194,445.046,329.255,445.046z"/>
	<path style="fill:#183651;" d="M290.658,445.046c-4.726,0-7.877-3.151-7.877-7.877v-46.474c0-4.726,3.151-7.877,7.877-7.877
		s7.877,3.151,7.877,7.877v46.474C298.535,441.895,294.597,445.046,290.658,445.046z"/>
	<path style="fill:#183651;" d="M252.062,445.046c-4.726,0-7.877-3.151-7.877-7.877v-46.474c0-4.726,3.151-7.877,7.877-7.877
		s7.877,3.151,7.877,7.877v46.474C259.938,441.895,256.788,445.046,252.062,445.046z"/>
	<path style="fill:#183651;" d="M213.465,445.046c-4.726,0-7.877-3.151-7.877-7.877v-46.474c0-4.726,3.151-7.877,7.877-7.877
		c4.726,0,7.877,3.151,7.877,7.877v46.474C221.342,441.895,218.191,445.046,213.465,445.046z"/>
	<path style="fill:#183651;" d="M174.868,445.046c-4.726,0-7.877-3.151-7.877-7.877v-46.474c0-4.726,3.151-7.877,7.877-7.877
		c4.726,0,7.877,3.151,7.877,7.877v46.474C182.745,441.895,179.594,445.046,174.868,445.046z"/>
</g>
<g>
	<path style="fill:#183651;" d="M136.271,445.046c-4.726,0-7.877-3.151-7.877-7.877v-46.474c0-4.726,3.151-7.877,7.877-7.877
		c4.726,0,7.877,3.151,7.877,7.877v46.474C144.148,441.895,140.997,445.046,136.271,445.046z"/>
	<path style="fill:#183651;" d="M367.852,105.551c-4.726,0-7.877-3.151-7.877-7.877V51.2c0-4.726,3.151-7.877,7.877-7.877
		c4.726,0,7.877,3.151,7.877,7.877v46.474C375.729,102.4,371.791,105.551,367.852,105.551z"/>
	<path style="fill:#183651;" d="M329.255,105.551c-4.726,0-7.877-3.151-7.877-7.877V51.2c0-4.726,3.151-7.877,7.877-7.877
		s7.877,3.151,7.877,7.877v46.474C337.132,102.4,333.194,105.551,329.255,105.551z"/>
	<path style="fill:#183651;" d="M290.658,105.551c-4.726,0-7.877-3.151-7.877-7.877V51.2c0-4.726,3.151-7.877,7.877-7.877
		s7.877,3.151,7.877,7.877v46.474C298.535,102.4,294.597,105.551,290.658,105.551z"/>
	<path style="fill:#183651;" d="M252.062,105.551c-4.726,0-7.877-3.151-7.877-7.877V51.2c0-4.726,3.151-7.877,7.877-7.877
		s7.877,3.151,7.877,7.877v46.474C259.938,102.4,256.788,105.551,252.062,105.551z"/>
	<path style="fill:#183651;" d="M213.465,105.551c-4.726,0-7.877-3.151-7.877-7.877V51.2c0-4.726,3.151-7.877,7.877-7.877
		c4.726,0,7.877,3.151,7.877,7.877v46.474C221.342,102.4,218.191,105.551,213.465,105.551z"/>
	<path style="fill:#183651;" d="M174.868,105.551c-4.726,0-7.877-3.151-7.877-7.877V51.2c0-4.726,3.151-7.877,7.877-7.877
		c4.726,0,7.877,3.151,7.877,7.877v46.474C182.745,102.4,179.594,105.551,174.868,105.551z"/>
	<path style="fill:#183651;" d="M136.271,105.551c-4.726,0-7.877-3.151-7.877-7.877V51.2c0-4.726,3.151-7.877,7.877-7.877
		c4.726,0,7.877,3.151,7.877,7.877v46.474C144.148,102.4,140.997,105.551,136.271,105.551z"/>
</g>
<path style="fill:#FFFFFF;" d="M379.668,97.674H124.455c-10.24,0-18.905,8.665-18.905,18.905v255.212
	c0,10.24,8.665,18.905,18.905,18.905h255.212c10.24,0,18.905-8.665,18.905-18.905V116.578
	C398.572,106.338,389.908,97.674,379.668,97.674z"/>
<path style="fill:#183651;" d="M379.668,398.572H124.455c-14.966,0-26.782-11.815-26.782-26.782V116.578
	c0-14.966,11.815-26.782,26.782-26.782h255.212c14.966,0,26.782,11.815,26.782,26.782v255.212
	C406.449,386.757,394.634,398.572,379.668,398.572z M124.455,105.551c-6.302,0-11.028,4.726-11.028,11.028v255.212
	c0,6.302,4.726,11.028,11.028,11.028h255.212c6.302,0,11.028-4.726,11.028-11.028V116.578c0-6.302-4.726-11.028-11.028-11.028
	C379.668,105.551,124.455,105.551,124.455,105.551z"/>
<path style="fill:#E1E6E8;" d="M356.037,128.394H148.086c-6.302,0-11.815,5.514-11.815,11.815v207.163
	c0,6.302,5.514,11.815,11.815,11.815h207.163c6.302,0,11.815-5.514,11.815-11.815V140.209
	C367.852,133.908,362.338,128.394,356.037,128.394z"/>
<g>
	<circle style="fill:#173651;" cx="347.372" cy="148.874" r="7.877"/>
	<circle style="fill:#173651;" cx="156.751" cy="148.874" r="7.877"/>
	<circle style="fill:#173651;" cx="347.372" cy="339.495" r="7.877"/>
	<circle style="fill:#173651;" cx="156.751" cy="339.495" r="7.877"/>
</g>
<g>
	<path style="fill:#183651;" d="M325.317,186.683H178.806c-4.726,0-7.877-3.151-7.877-7.877c0-4.726,3.151-7.877,7.877-7.877
		h146.511c4.726,0,7.877,3.151,7.877,7.877C333.194,182.745,329.255,186.683,325.317,186.683z"/>
	<path style="fill:#183651;" d="M325.317,222.129H178.806c-4.726,0-7.877-3.151-7.877-7.877c0-4.726,3.151-7.877,7.877-7.877
		h146.511c4.726,0,7.877,3.151,7.877,7.877C333.194,218.978,329.255,222.129,325.317,222.129z"/>
	<path style="fill:#183651;" d="M252.062,258.363h-73.255c-4.726,0-7.877-3.151-7.877-7.877c0-4.726,3.151-7.877,7.877-7.877h73.255
		c4.726,0,7.877,3.151,7.877,7.877C259.938,255.212,256.788,258.363,252.062,258.363z"/>
</g>
<g>
</g>
<g>
</g>
<g>
</g>
<g>
</g>
<g>
</g>
<g>
</g>
<g>
</g>
<g>
</g>
<g>
</g>
<g>
</g>
<g>
</g>
<g>
</g>
<g>
</g>
<g>
</g>
<g>
</g>
</svg>
