<svg height="512" viewBox="0 0 64 64" width="512" xmlns="http://www.w3.org/2000/svg" xmlns:xlink="http://www.w3.org/1999/xlink"><linearGradient id="New_Gradient_Swatch_1" gradientUnits="userSpaceOnUse" x1="32" x2="32" y1="1.147" y2="66.053"><stop offset="0" stop-color="#fff33b"/><stop offset=".014" stop-color="#fee72e"/><stop offset=".042" stop-color="#fed51b"/><stop offset=".07" stop-color="#fdca10"/><stop offset=".1" stop-color="#fdc70c"/><stop offset=".4" stop-color="#f3903f"/><stop offset=".8" stop-color="#ed683c"/><stop offset="1" stop-color="#e93e3a"/></linearGradient><linearGradient id="New_Gradient_Swatch_1-2" x1="36" x2="36" xlink:href="#New_Gradient_Swatch_1" y1="1.147" y2="66.053"/><linearGradient id="New_Gradient_Swatch_1-3" x1="18" x2="18" xlink:href="#New_Gradient_Swatch_1" y1="1.147" y2="66.053"/><linearGradient id="New_Gradient_Swatch_1-5" x1="22" x2="22" xlink:href="#New_Gradient_Swatch_1" y1="1.147" y2="66.053"/><linearGradient id="New_Gradient_Swatch_1-6" x1="16" x2="16" xlink:href="#New_Gradient_Swatch_1" y1="1.147" y2="66.053"/><linearGradient id="New_Gradient_Swatch_1-7" x1="35" x2="35" xlink:href="#New_Gradient_Swatch_1" y1="1.147" y2="66.053"/><linearGradient id="New_Gradient_Swatch_1-10" x1="42" x2="42" xlink:href="#New_Gradient_Swatch_1" y1="1.147" y2="66.053"/><linearGradient id="New_Gradient_Swatch_1-11" x1="23" x2="23" xlink:href="#New_Gradient_Swatch_1" y1="1.147" y2="66.053"/><linearGradient id="New_Gradient_Swatch_1-12" x1="41" x2="41" xlink:href="#New_Gradient_Swatch_1" y1="1.147" y2="66.053"/><path d="m61.555 24.168-5.555-3.703v-11.465a1 1 0 0 0 -1-1h-14.753l-7.647-5.8a1 1 0 0 0 -1.208 0l-7.639 5.8h-14.753a1 1 0 0 0 -1 1v11.465l-5.555 3.7a1 1 0 0 0 -.445.835v32a5.006 5.006 0 0 0 5 5h50a5.006 5.006 0 0 0 5-5v-32a1 1 0 0 0 -.445-.832zm-1.555 2.721v26.417l-21.451-11.835zm-.791-1.881-3.209 2.182v-4.322zm-27.209-20.753 4.937 3.745h-9.874zm22 5.745v18.549l-17.414 11.839-4.1-2.263a1 1 0 0 0 -.967 0l-4.1 2.268-17.419-11.887v-18.506zm-28.539 31.478-21.461 11.886v-26.531zm-17.461-14.337-3.167-2.161 3.167-2.112zm49 32.859h-50a3 3 0 0 1 -3-3v-1.35l28-15.507 28 15.447v1.41a3 3 0 0 1 -3 3z" fill="url(#New_Gradient_Swatch_1)"/><path d="m22 56h28v2h-28z" fill="url(#New_Gradient_Swatch_1-2)"/><path d="m16 56h4v2h-4z" fill="url(#New_Gradient_Swatch_1-3)"/><path d="m26 52h20v2h-20z" fill="url(#New_Gradient_Swatch_1-2)"/><path d="m20 52h4v2h-4z" fill="url(#New_Gradient_Swatch_1-5)"/><path d="m14 14h4v2h-4z" fill="url(#New_Gradient_Swatch_1-6)"/><path d="m20 14h30v2h-30z" fill="url(#New_Gradient_Swatch_1-7)"/><path d="m14 19h36v2h-36z" fill="url(#New_Gradient_Swatch_1)"/><path d="m14 24h16v2h-16z" fill="url(#New_Gradient_Swatch_1-5)"/><path d="m34 24h16v2h-16z" fill="url(#New_Gradient_Swatch_1-10)"/><path d="m16 29h14v2h-14z" fill="url(#New_Gradient_Swatch_1-11)"/><path d="m34 29h14v2h-14z" fill="url(#New_Gradient_Swatch_1-12)"/></svg>