<?xml version="1.0" encoding="iso-8859-1"?>
<!-- Generator: Adobe Illustrator 19.0.0, SVG Export Plug-In . SVG Version: 6.00 Build 0)  -->
<svg version="1.1" id="Capa_1" xmlns="http://www.w3.org/2000/svg" xmlns:xlink="http://www.w3.org/1999/xlink" x="0px" y="0px"
	 viewBox="0 0 512 512" style="enable-background:new 0 0 512 512;" xml:space="preserve">
<path style="fill:#E63950;" d="M256,0c141.385,0,256,114.615,256,256S397.385,512,256,512S0,397.385,0,256S114.615,0,256,0z"/>
<path style="fill:#E1EBF0;" d="M102,83.667h343.305C486.737,129.153,512,189.625,512,256c0,46.492-12.396,90.087-34.06,127.667H102
	c-11.046,0-20-8.954-20-20v-260C82,92.621,90.954,83.667,102,83.667z"/>
<path style="fill:#1FB480;" d="M127,107.667h337.668C494.471,149.515,512,200.71,512,256c0,36.902-7.822,71.974-21.876,103.667H127
	c-2.761,0-5-2.238-5-5v-242C122,109.905,124.238,107.667,127,107.667z"/>
<path style="fill:#00915D;" d="M217,170.542v55.625h260.088c2.761,0,5,2.239,5,5v5c0,2.761-2.239,5-5,5H217v55.625h260.088
	c2.761,0,5,2.239,5,5v5c0,2.761-2.239,5-5,5H217V335c0,2.761-2.239,5-5,5h-5c-2.761,0-5-2.239-5-5v-23.208h-43.75
	c-2.761,0-5-2.239-5-5v-5c0-2.761,2.239-5,5-5H202v-55.625h-43.75c-2.761,0-5-2.239-5-5v-5c0-2.761,2.239-5,5-5H202v-55.625h-43.75
	c-2.761,0-5-2.239-5-5v-5c0-2.761,2.239-5,5-5H202V135c0-2.761,2.239-5,5-5h5c2.761,0,5,2.239,5,5v20.542h260.088
	c2.761,0,5,2.239,5,5v5c0,2.761-2.239,5-5,5L217,170.542L217,170.542z"/>
<path style="fill:#9BB9C3;" d="M95.5,241.167v-15c0-4.142,3.358-7.5,7.5-7.5s7.5,3.358,7.5,7.5v15c0,4.142-3.358,7.5-7.5,7.5
	S95.5,245.309,95.5,241.167z M480,379.978c3.836-6.917,7.379-14.02,10.575-21.311H480V164c0-5.523-4.477-10-10-10H290
	c-5.523,0-10,4.477-10,10v194.667H142h-40c-11.046,0-20-8.954-20-20v25c0,11.046,8.954,20,20,20h178V460c0,5.523,4.477,10,10,10
	h106.518c33.412-21.983,61.34-51.592,81.373-86.333h0.05c0.578-1.003,1.129-2.023,1.694-3.034c0.119-0.214,0.247-0.422,0.366-0.636
	L480,379.978L480,379.978z"/>
<path style="fill:#B4D2D7;" d="M480,379.996c-9.517,17.156-20.939,33.107-33.995,47.558c-5.264,1.453-9.361,5.695-10.603,11.044
	c-11.887,11.68-24.908,22.205-38.885,31.401H324c-5.523,0-10-4.477-10-10V164c0-5.523,4.477-10,10-10h146c5.523,0,10,4.477,10,10
	V379.996z"/>
<path style="fill:#F9E8B2;" d="M440,440H260c-5.523,0-10-4.477-10-10V134c0-5.523,4.477-10,10-10h180c5.523,0,10,4.477,10,10v296
	C450,435.523,445.523,440,440,440z"/>
<path style="fill:#FBF0D1;" d="M440,440H294c-5.523,0-10-4.477-10-10V134c0-5.523,4.477-10,10-10h146c5.523,0,10,4.477,10,10v296
	C450,435.523,445.523,440,440,440z"/>
<path style="fill:#F7DE92;" d="M435,412c0,8.284-6.716,15-15,15s-15-6.716-15-15s6.716-15,15-15S435,403.716,435,412z M280,137
	c-8.284,0-15,6.716-15,15s6.716,15,15,15s15-6.716,15-15S288.284,137,280,137z"/>
<path style="fill:#495959;" d="M400.533,311.889c-11.144,11.144-29.211,11.144-40.355,0l-7.263-7.262l23.114,35.338
	c0.351,0.537,0.351,1.23,0,1.766c-0.518,0.791-1.399,1.268-2.345,1.268h-47.921c-0.933,0-1.805-0.465-2.326-1.24l-0.008-0.012
	c-0.365-0.544-0.365-1.255,0-1.8l23.875-35.542l-7.482,7.482c-11.144,11.144-29.211,11.144-40.355,0s-11.144-29.211,0-40.355
	l49.119-49.119c0.781-0.781,2.047-0.781,2.828,0l49.119,49.119C411.677,282.677,411.677,300.745,400.533,311.889z"/>
<path style="fill:#FFE67D;" d="M193.096,411.548c0,39.515-32.033,71.548-71.548,71.548S50,451.063,50,411.548
	S82.033,340,121.548,340S193.096,372.033,193.096,411.548z"/>
<path style="fill:#FFF5F5;" d="M188.797,422.586h-40.601l28.709,28.709c-2.08,2.994-4.447,5.842-7.107,8.503
	c-2.661,2.661-5.509,5.027-8.503,7.107l-28.709-28.709v40.601c-3.588,0.646-7.275,0.987-11.038,0.987s-7.45-0.341-11.038-0.987
	v-40.601l-28.709,28.709c-2.994-2.08-5.842-4.447-8.503-7.107c-2.661-2.661-5.027-5.509-7.107-8.503L94.9,422.586H54.299
	c-0.646-3.588-0.987-7.275-0.987-11.038s0.341-7.45,0.987-11.038H94.9l-28.709-28.709c2.08-2.994,4.447-5.842,7.107-8.503
	s5.509-5.027,8.503-7.107L110.51,384.9v-40.601c3.588-0.646,7.275-0.987,11.038-0.987s7.45,0.341,11.038,0.987V384.9l28.709-28.709
	c2.994,2.08,5.842,4.447,8.503,7.107c2.661,2.661,5.027,5.509,7.107,8.503l-28.709,28.709h40.601
	c0.646,3.588,0.987,7.275,0.987,11.038S189.443,418.998,188.797,422.586z"/>
<path style="fill:#F7C22C;" d="M126.185,482.942c-1.534,0.098-3.079,0.154-4.637,0.154C82.033,483.096,50,451.063,50,411.548
	S82.033,340,121.548,340c1.559,0,3.104,0.055,4.637,0.154c-37.353,2.39-66.911,33.438-66.911,71.394
	C59.275,449.504,88.833,480.552,126.185,482.942z M121.548,363.085c-26.765,0-48.462,21.697-48.462,48.462
	s21.698,48.463,48.462,48.463c26.765,0,48.463-21.698,48.463-48.463S148.313,363.085,121.548,363.085z"/>
<path style="fill:#FFF5F5;" d="M97.661,396.368v30.359c0,1.402-1.137,2.539-2.539,2.539h-2.797c-1.402,0-2.539-1.136-2.539-2.539
	v-30.359c0-1.402,1.136-2.539,2.539-2.539h2.797C96.524,393.83,97.661,394.966,97.661,396.368z M153.31,405.445v12.206
	c0,6.524-5.289,11.812-11.812,11.812c-6.524,0-11.812-5.289-11.812-11.812v-12.206c0-6.524,5.289-11.812,11.812-11.812
	C148.022,393.633,153.31,398.921,153.31,405.445z M145.435,405.445c0-2.175-1.763-3.937-3.938-3.937s-3.937,1.763-3.937,3.937
	v12.206c0,2.175,1.763,3.938,3.937,3.938c2.175,0,3.938-1.763,3.938-3.938V405.445z M125.485,405.445v12.206
	c0,6.524-5.289,11.812-11.812,11.812s-11.812-5.289-11.812-11.812v-12.206c0-6.524,5.289-11.812,11.812-11.812
	S125.485,398.921,125.485,405.445z M117.611,405.445c0-2.175-1.763-3.937-3.938-3.937s-3.938,1.763-3.938,3.937v12.206
	c0,2.175,1.763,3.938,3.938,3.938s3.938-1.763,3.938-3.938V405.445z"/>
<g>
</g>
<g>
</g>
<g>
</g>
<g>
</g>
<g>
</g>
<g>
</g>
<g>
</g>
<g>
</g>
<g>
</g>
<g>
</g>
<g>
</g>
<g>
</g>
<g>
</g>
<g>
</g>
<g>
</g>
</svg>
