<?xml version="1.0" encoding="iso-8859-1"?>
<!-- Generator: Adobe Illustrator 19.0.0, SVG Export Plug-In . SVG Version: 6.00 Build 0)  -->
<svg version="1.1" id="Capa_1" xmlns="http://www.w3.org/2000/svg" xmlns:xlink="http://www.w3.org/1999/xlink" x="0px" y="0px"
	 viewBox="0 0 491.52 491.52" style="enable-background:new 0 0 491.52 491.52;" xml:space="preserve">
<circle style="fill:#EA8953;" cx="245.76" cy="245.76" r="245.76"/>
<path style="opacity:0.1;enable-background:new    ;" d="M489.788,274.533L369.766,154.511l-1.485-1.485
	c-1.587-1.331-3.584-2.047-5.734-2.047H128.973c-5.12,0-9.267,4.148-9.267,9.318V317.02H104.96v17.664l156.265,156.302
	C380.153,483.594,476.121,391.653,489.788,274.533z"/>
<rect x="104.96" y="317.041" style="fill:#EBF0F3;" width="281.6" height="17.638"/>
<polygon style="fill:#D5D6DB;" points="386.397,334.69 105.123,334.69 119.689,340.546 371.831,340.546 "/>
<path style="fill:#3A556A;" d="M362.524,150.974H128.997c-5.146,0-9.317,4.171-9.317,9.317V317.04h252.16V160.291
	C371.84,155.146,367.669,150.974,362.524,150.974z"/>
<rect x="135.04" y="166.339" style="fill:#EBF0F3;" width="221.44" height="135.347"/>
<g>
	<rect x="135.04" y="293.837" style="fill:#D5D6DB;" width="221.44" height="7.818"/>
	<rect x="224.809" y="323.174" style="fill:#D5D6DB;" width="41.897" height="5.407"/>
</g>
<rect x="250.004" y="230.149" style="fill:#FCD462;" width="18.094" height="20.685"/>
<rect x="250.004" y="250.819" style="fill:#F6C358;" width="18.094" height="4.26"/>
<rect x="276.014" y="250.819" style="fill:#3A556A;" width="18.094" height="4.26"/>
<rect x="276.014" y="205.517" style="fill:#64798A;" width="18.094" height="45.297"/>
<rect x="302.029" y="250.819" style="fill:#2D93BA;" width="18.094" height="4.26"/>
<rect x="302.029" y="219.274" style="fill:#27A2DB;" width="18.094" height="31.544"/>
<rect x="328.038" y="176.338" style="fill:#44C4A1;" width="18.094" height="74.481"/>
<rect x="328.038" y="250.819" style="fill:#3EA69B;" width="18.094" height="4.26"/>
<path style="fill:#E56353;" d="M189.153,254.934c19.153,0,34.68-15.526,34.68-34.68h-34.68V254.934z"/>
<path style="fill:#44C4A1;" d="M210.41,185.573l-22.256,26.59h34.68C222.834,201.483,218.003,191.935,210.41,185.573z"/>
<path style="fill:#FCD462;" d="M180.064,176.485c-19.153,0-34.68,15.527-34.68,34.68c0,19.153,15.527,34.68,34.68,34.68v-34.68
	l22.257-26.591C196.297,179.528,188.537,176.485,180.064,176.485z"/>
<g>
	<rect x="145.382" y="263.987" style="fill:#D5D6DB;" width="77.466" height="7.68"/>
	<rect x="145.382" y="279.194" style="fill:#D5D6DB;" width="46.74" height="7.68"/>
	<rect x="249.523" y="263.987" style="fill:#D5D6DB;" width="96.609" height="7.68"/>
	<rect x="249.523" y="279.194" style="fill:#D5D6DB;" width="58.301" height="7.68"/>
</g>
<g>
</g>
<g>
</g>
<g>
</g>
<g>
</g>
<g>
</g>
<g>
</g>
<g>
</g>
<g>
</g>
<g>
</g>
<g>
</g>
<g>
</g>
<g>
</g>
<g>
</g>
<g>
</g>
<g>
</g>
</svg>
